<svg width="48" height="50" viewBox="0 0 48 50" fill="none" xmlns="http://www.w3.org/2000/svg">
<path d="M4 4.16667V2.66667C3.17157 2.66667 2.5 3.33824 2.5 4.16667H4ZM26 4.16667H27.5C27.5 3.33824 26.8284 2.66667 26 2.66667V4.16667ZM23 2.66667C22.1716 2.66667 21.5 3.33824 21.5 4.16667C21.5 4.9951 22.1716 5.66667 23 5.66667V2.66667ZM7 5.66667C7.82843 5.66667 8.5 4.9951 8.5 4.16667C8.5 3.33824 7.82843 2.66667 7 2.66667V5.66667ZM24.5 4.16667V18.1667H27.5V4.16667H24.5ZM5.5 18.1667V4.16667H2.5V18.1667H5.5ZM26 2.66667H23V5.66667H26V2.66667ZM4 5.66667H7V2.66667H4V5.66667ZM15 27.6667C9.75329 27.6667 5.5 23.4134 5.5 18.1667H2.5C2.5 25.0702 8.09644 30.6667 15 30.6667V27.6667ZM24.5 18.1667C24.5 23.4134 20.2467 27.6667 15 27.6667V30.6667C21.9036 30.6667 27.5 25.0702 27.5 18.1667H24.5Z" fill="white"/>
<ellipse cx="39.5" cy="22.3958" rx="4.5" ry="4.6875" stroke="#FFFBFB" stroke-width="3"/>
<path d="M15 29.1667V33.5833C15 40.3488 20.4845 45.8333 27.25 45.8333V45.8333C34.0155 45.8333 39.5 40.3488 39.5 33.5833V27.0833" stroke="#FFFAFA" stroke-width="3"/>
</svg>
