<svg width="50" height="53" viewBox="0 0 50 53" fill="none" xmlns="http://www.w3.org/2000/svg">
<path d="M32.5269 11.3764L37.4767 6.23864L43.8406 12.8443L38.8909 17.982" stroke="#F9F1F1" stroke-width="3" stroke-linejoin="round"/>
<path d="M47.7098 4.38304C48.2845 3.78644 48.2845 2.81917 47.7098 2.22257C47.135 1.62597 46.2031 1.62597 45.6283 2.22257L47.7098 4.38304ZM41.6993 10.6217L47.7098 4.38304L45.6283 2.22257L39.6179 8.46122L41.6993 10.6217Z" fill="#F9F1F1"/>
<path d="M7.07107 24.5876L26.8701 45.1385" stroke="#F9F1F1" stroke-width="3" stroke-linecap="round"/>
<path d="M42.4264 21.6518L43.4671 22.732C43.7431 22.4455 43.8982 22.057 43.8982 21.6518C43.8982 21.2466 43.7431 20.8581 43.4671 20.5716L42.4264 21.6518ZM29.6985 8.44053L30.7392 7.36029C30.1644 6.7637 29.2325 6.7637 28.6578 7.36029L29.6985 8.44053ZM24.3752 42.5489L43.4671 22.732L41.3857 20.5716L22.2938 40.3884L24.3752 42.5489ZM43.4671 20.5716L30.7392 7.36029L28.6578 9.52077L41.3857 22.732L43.4671 20.5716ZM28.6578 7.36029L9.56588 27.1772L11.6473 29.3377L30.7392 9.52077L28.6578 7.36029Z" fill="#F9F1F1"/>
<path d="M21.9203 29.7253L28.2843 36.331" stroke="#F9F1F1" stroke-width="3" stroke-linecap="round"/>
<path d="M28.5 27.1286L32.9331 31.5056" stroke="#F9F1F1" stroke-width="3" stroke-linecap="round"/>
<path d="M12.0408 46.5857C12.6155 47.1823 13.5474 47.1823 14.1222 46.5857C14.697 45.9891 14.697 45.0218 14.1222 44.4252L12.0408 46.5857ZM7.75823 37.8196C7.18346 37.223 6.25157 37.223 5.6768 37.8196C5.10203 38.4162 5.10203 39.3835 5.6768 39.9801L7.75823 37.8196ZM16.637 33.0488L8.85878 41.1224L10.9402 43.2829L18.7184 35.2093L16.637 33.0488ZM8.85878 43.2829L12.0408 46.5857L14.1222 44.4252L10.9402 41.1224L8.85878 43.2829ZM10.9402 41.1224L7.75823 37.8196L5.6768 39.9801L8.85878 43.2829L10.9402 41.1224Z" fill="#F9F1F1"/>
</svg>
